<svg width="260" height="120" viewBox="0 0 260 120" fill="none" xmlns="http://www.w3.org/2000/svg">
<path fill-rule="evenodd" clip-rule="evenodd" d="M10 0C4.47715 0 0 4.47715 0 10V110C0 115.523 4.47715 120 10 120H37C38.6569 120 40 118.657 40 117V104C40 101 41 100 44 100H57C58.6569 100 60 98.6569 60 97V83C60 81.3431 61.3431 80 63 80H77C78.6569 80 80 78.6569 80 77V63C80 61.3431 78.6569 60 77 60H63C61.3431 60 60 58.6569 60 57V43C60 41.3431 61.3431 40 63 40H117C118.657 40 120 41.3431 120 43V97C120 98.6569 121.343 100 123 100H137C138.657 100 140 98.6569 140 97V43C140 41.3431 141.343 40 143 40H177C178.657 40 180 41.3431 180 43V97C180 98.6569 181.343 100 183 100H197C198.657 100 200 98.6569 200 97V40H217C218.657 40 220 38.6569 220 37V24C220 21 221 20 224 20H237C238.657 20 240 21.3431 240 23V97C240 98.6569 238.657 100 237 100H223C221.343 100 220 101.343 220 103V117C220 118.657 221.343 120 223 120H250C255.523 120 260 115.523 260 110V10C260 4.47715 255.523 0 250 0H223C221.343 0 220 1.34315 220 3V16C220 19 219 20 216 20H44C41 20 40 19 40 16V3C40 1.34315 38.6569 0 37 0H10ZM36 100C39 100 40 99 40 96V24C40 21 39 20 36 20H23C21.3431 20 20 21.3431 20 23V97C20 98.6569 21.3431 100 23 100H36Z" fill="#111827"/>
</svg>